<?xml version="1.0" encoding="UTF-8" standalone="no"?>
<!-- Created with Inkscape (http://www.inkscape.org/) -->

<svg
   xmlns:dc="http://purl.org/dc/elements/1.1/"
   xmlns:cc="http://creativecommons.org/ns#"
   xmlns:rdf="http://www.w3.org/1999/02/22-rdf-syntax-ns#"
   xmlns:svg="http://www.w3.org/2000/svg"
   xmlns="http://www.w3.org/2000/svg"
   xmlns:sodipodi="http://sodipodi.sourceforge.net/DTD/sodipodi-0.dtd"
   xmlns:inkscape="http://www.inkscape.org/namespaces/inkscape"
   id="svg2"
   version="1.1"
   inkscape:version="0.48.4 r9939"
   width="86.290009"
   height="26.69541"
   xml:space="preserve"
   sodipodi:docname="logo_branco.ai.svg"
   inkscape:export-filename="C:\Users\Alb\Desktop\ControliD\Gráficos\Righetto\logo_branco.ai.png"
   inkscape:export-xdpi="600.48999"
   inkscape:export-ydpi="600.48999"><metadata
     id="metadata8"><rdf:RDF><cc:Work
         rdf:about=""><dc:format>image/svg+xml</dc:format><dc:type
           rdf:resource="http://purl.org/dc/dcmitype/StillImage" /><dc:title></dc:title></cc:Work></rdf:RDF></metadata><defs
     id="defs6"><clipPath
       clipPathUnits="userSpaceOnUse"
       id="clipPath16"><path
         d="m 0,17.093 73.105,0 L 73.105,0 0,0 0,17.093 z"
         id="path18"
         inkscape:connector-curvature="0" /></clipPath></defs><sodipodi:namedview
     pagecolor="#ffffff"
     bordercolor="#666666"
     borderopacity="1"
     objecttolerance="10"
     gridtolerance="10"
     guidetolerance="10"
     inkscape:pageopacity="0"
     inkscape:pageshadow="2"
     inkscape:window-width="1366"
     inkscape:window-height="745"
     id="namedview4"
     showgrid="false"
     inkscape:zoom="7.4284153"
     inkscape:cx="21.692839"
     inkscape:cy="10.087378"
     inkscape:window-x="-8"
     inkscape:window-y="-8"
     inkscape:window-maximized="1"
     inkscape:current-layer="g10"
     fit-margin-left="1"
     fit-margin-top="1"
     fit-margin-bottom="1"
     fit-margin-right="1" /><g
     id="g10"
     inkscape:groupmode="layer"
     inkscape:label="LOGO_CONTROL_iD_novo_Tecnologia"
     transform="matrix(1.25,0,0,-1.25,-2.5459326,18.826459)"><path
   inkscape:connector-curvature="0"
   id="path22"
   style="fill:#ffffff;fill-opacity:1;fill-rule:nonzero;stroke:none"
   d="M 11.952804,3.857406 C 11.681802,3.7404053 11.436801,3.6284046 11.2178,3.525404 10.998798,3.4214034 10.712797,3.3134028 10.357795,3.2014021 10.057793,3.1074016 9.7317909,3.0274011 9.3797888,2.9614007 9.0287867,2.8944003 8.6407845,2.8624001 8.217782,2.8624001 c -0.7970047,0 -1.522009,0.1110007 -2.1740129,0.335002 C 5.3917653,3.4214034 4.8247619,3.7714055 4.3427591,4.2504083 3.8697563,4.7164111 3.5017541,5.3104146 3.2357526,6.0324188 2.968751,6.7524231 2.8367502,7.590428 2.8367502,8.5454337 c 0,0.9040053 0.1280008,1.7140103 0.3840023,2.4270143 0.2560015,0.715004 0.6240037,1.318008 1.1070065,1.808011 0.4680028,0.478002 1.0320061,0.843005 1.69401,1.094006 0.6620039,0.251002 1.3960082,0.377002 2.203013,0.377002 0.5910035,0 1.180007,-0.073 1.7680104,-0.216001 0.5880036,-0.141001 1.2420076,-0.392002 1.9600116,-0.752004 l 0,-1.735011 -0.111001,0 c -0.605003,0.507003 -1.205007,0.876006 -1.80001,1.107007 -0.5960038,0.231001 -1.2330075,0.348002 -1.9120116,0.348002 -0.5570032,0 -1.0570062,-0.091 -1.5030088,-0.270002 C 6.18177,12.553457 5.7847676,12.274456 5.4357655,11.896453 5.0957635,11.526451 4.830762,11.060448 4.6417609,10.497445 4.4527598,9.9334418 4.3577592,9.282438 4.3577592,8.5454337 4.3577592,7.7724291 4.4617598,7.1074252 4.671761,6.5514219 4.8807623,5.9964186 5.1497639,5.5434159 5.4797658,5.1934139 5.8237678,4.8304117 6.2257702,4.5594101 6.6857729,4.3854091 7.1467756,4.2114081 7.6317785,4.1244076 8.1437815,4.1244076 c 0.7040042,0 1.3630081,0.1200007 1.9780115,0.3600021 0.615004,0.2410014 1.191007,0.6030036 1.72701,1.0860064 l 0.104001,0 0,-1.7130101 z" /><path
   inkscape:connector-curvature="0"
   id="path26"
   style="fill:#ffffff;fill-opacity:1;fill-rule:nonzero;stroke:none"
   d="m 20.448055,7.1797256 c 0,-1.3440079 -0.344002,-2.4040142 -1.033006,-3.1820188 -0.689004,-0.7770046 -1.61201,-1.1660069 -2.768016,-1.1660069 -1.166007,0 -2.092013,0.3890023 -2.779017,1.1660069 -0.686004,0.7780046 -1.030006,1.8380109 -1.030006,3.1820188 0,1.3440079 0.344002,2.4050142 1.030006,3.1850184 0.687004,0.780005 1.61301,1.169007 2.779017,1.169007 1.156006,0 2.079012,-0.389002 2.768016,-1.169007 0.689004,-0.7800042 1.033006,-1.8410105 1.033006,-3.1850184 m -1.431008,0 c 0,1.0680063 -0.210002,1.861011 -0.628004,2.381014 -0.418003,0.5180034 -0.999006,0.7780044 -1.74201,0.7780044 -0.753005,0 -1.337008,-0.260001 -1.753011,-0.7780044 -0.416002,-0.520003 -0.624003,-1.3130077 -0.624003,-2.381014 0,-1.0330061 0.210001,-1.8170107 0.628003,-2.3520139 0.417003,-0.5340031 1.001006,-0.8000047 1.749011,-0.8000047 0.738004,0 1.317007,0.2640016 1.73801,0.7940047 0.421002,0.5290031 0.632004,1.3150077 0.632004,2.3580139" /><path
   inkscape:connector-curvature="0"
   id="path30"
   style="fill:#ffffff;fill-opacity:1;fill-rule:nonzero;stroke:none"
   d="m 28.398702,3.0605013 -1.388008,0 0,4.6950277 c 0,0.3780022 -0.022,0.7340043 -0.066,1.0660063 -0.045,0.3320019 -0.126,0.5910035 -0.244001,0.7790046 -0.123001,0.2060012 -0.300002,0.3600021 -0.532003,0.4610031 -0.231002,0.101 -0.531003,0.152001 -0.900005,0.152001 -0.379003,0 -0.775005,-0.094 -1.188007,-0.2810022 C 23.666674,9.7455407 23.270672,9.5065393 22.89267,9.2165376 l 0,-6.1560363 -1.388009,0 0,8.2450487 1.388009,0 0,-0.915005 c 0.432002,0.359002 0.880005,0.639003 1.343007,0.841005 0.462003,0.202001 0.937006,0.303001 1.424009,0.303001 0.891005,0 1.570009,-0.269001 2.038012,-0.805004 0.467003,-0.536004 0.701004,-1.3090082 0.701004,-2.3170141 l 0,-5.3520316 z" /><path
   inkscape:connector-curvature="0"
   id="path34"
   style="fill:#ffffff;fill-opacity:1;fill-rule:nonzero;stroke:none"
   d="m 34.86414,3.1348017 c -0.261002,-0.069 -0.545003,-0.1260007 -0.853005,-0.170001 -0.307002,-0.044 -0.581003,-0.066 -0.822005,-0.066 -0.842005,0 -1.481009,0.2250013 -1.919011,0.678004 -0.439003,0.4540027 -0.658004,1.179007 -0.658004,2.1790129 l 0,4.3840258 -0.936006,0 0,1.166007 0.936006,0 0,2.369014 1.389008,0 0,-2.369014 2.863017,0 0,-1.166007 -2.863017,0 0,-3.7570221 c 0,-0.4340026 0.009,-0.7710046 0.029,-1.016006 0.02,-0.2440015 0.088,-0.4710028 0.206001,-0.6820041 0.109001,-0.1970011 0.258002,-0.341002 0.447003,-0.4330025 0.189001,-0.091001 0.478003,-0.1360008 0.867005,-0.1360008 0.226002,0 0.463003,0.034 0.709004,0.1010006 0.246002,0.065 0.423003,0.1210007 0.531004,0.165001 l 0.074,0 0,-1.2470074 z" /><path
   inkscape:connector-curvature="0"
   id="path38"
   style="fill:#ffffff;fill-opacity:1;fill-rule:nonzero;stroke:none"
   d="m 41.197677,9.792041 -0.074,0 c -0.206002,0.049 -0.407003,0.085001 -0.601004,0.1070006 -0.195001,0.022 -0.426002,0.033 -0.690004,0.033 -0.429003,0 -0.842005,-0.095001 -1.241007,-0.2840016 C 38.192659,9.459039 37.808657,9.2140376 37.440655,8.9140358 l 0,-5.8530345 -1.388008,0 0,8.2440487 1.388008,0 0,-1.218007 c 0.551003,0.443002 1.036006,0.757004 1.458008,0.942005 0.420003,0.184001 0.849005,0.276002 1.287008,0.276002 0.241001,0 0.416002,-0.006 0.525003,-0.018 0.108001,-0.013 0.270002,-0.036 0.487003,-0.07 l 0,-1.425008 z" /><path
   inkscape:connector-curvature="0"
   id="path42"
   style="fill:#ffffff;fill-opacity:1;fill-rule:nonzero;stroke:none"
   d="m 49.346125,7.1797256 c 0,-1.3440079 -0.345002,-2.4040142 -1.034006,-3.1820188 -0.689004,-0.7770046 -1.61101,-1.1660069 -2.768016,-1.1660069 -1.166007,0 -2.093013,0.3890023 -2.779017,1.1660069 -0.686004,0.7780046 -1.029006,1.8380109 -1.029006,3.1820188 0,1.3440079 0.343002,2.4050142 1.029006,3.1850184 0.686004,0.780005 1.61301,1.169007 2.779017,1.169007 1.157006,0 2.079012,-0.389002 2.768016,-1.169007 0.689004,-0.7800042 1.034006,-1.8410105 1.034006,-3.1850184 m -1.433008,0 c 0,1.0680063 -0.209002,1.861011 -0.626004,2.381014 -0.419003,0.5180034 -1.000006,0.7780044 -1.74301,0.7780044 -0.753005,0 -1.337008,-0.260001 -1.753011,-0.7780044 -0.416002,-0.520003 -0.623003,-1.3130077 -0.623003,-2.381014 0,-1.0330061 0.209001,-1.8170107 0.627003,-2.3520139 0.418003,-0.5340031 1.002006,-0.8000047 1.749011,-0.8000047 0.739004,0 1.318007,0.2640016 1.73901,0.7940047 0.420002,0.5290031 0.630004,1.3150077 0.630004,2.3580139" /><path
   d="m 51.80544,3.0610013 -1.388009,0 0,11.1900657 1.388009,0 0,-11.1900657 z"
   style="fill:#ffffff;fill-opacity:1;fill-rule:nonzero;stroke:none"
   id="path44"
   inkscape:connector-curvature="0" /><path
   inkscape:connector-curvature="0"
   id="path48"
   style="fill:#d9172a;fill-opacity:1;fill-rule:nonzero;stroke:none"
   d="m 69.616745,11.412151 c -0.434003,0.806005 -1.047006,1.461009 -1.824011,1.946011 -0.454002,0.281002 -1.016006,0.505003 -1.66601,0.664004 -0.646003,0.159001 -1.523009,0.239002 -2.608015,0.239002 l -2.955017,0 0,-11.4100675 2.986017,0 c 1.018006,0 1.854011,0.071 2.484015,0.2110012 0.638004,0.1420009 1.224007,0.3770023 1.74401,0.6990042 0.752005,0.4640027 1.362008,1.1280066 1.814011,1.9680116 0.449003,0.8390049 0.677004,1.7870105 0.677004,2.8150166 0,1.0980065 -0.219001,2.0630119 -0.652004,2.8680169 m -6.009035,-6.8870406 -1.163007,0 0,8.0610476 1.163007,0 c 0.662003,0 1.238007,-0.047 1.70801,-0.140001 0.463002,-0.091 0.907005,-0.256001 1.318007,-0.489003 0.556004,-0.318002 0.980006,-0.758004 1.260008,-1.308008 0.284002,-0.558003 0.427002,-1.2590069 0.427002,-2.0820118 0,-0.8210048 -0.131,-1.5100089 -0.389002,-2.0500121 C 67.678734,5.985119 67.289731,5.5501164 66.778728,5.2241145 66.365726,4.9581129 65.904723,4.7741118 65.40872,4.6771113 64.900717,4.5761107 64.294714,4.5251104 63.60771,4.5251104" /><path
   d="m 59.230483,2.851 -1.81301,0 0,8.149048 1.81301,0 0,-8.149048 z"
   style="fill:#d9172a;fill-opacity:1;fill-rule:nonzero;stroke:none"
   id="path50"
   inkscape:connector-curvature="0" /><path
   inkscape:connector-curvature="0"
   id="path54"
   style="fill:#d9172a;fill-opacity:1;fill-rule:nonzero;stroke:none"
   d="m 59.407684,13.109961 c 0,-0.598004 -0.484003,-1.083006 -1.083006,-1.083006 -0.599004,0 -1.084007,0.485002 -1.084007,1.083006 0,0.598004 0.485003,1.083006 1.084007,1.083006 0.599003,0 1.083006,-0.485002 1.083006,-1.083006" />


</g></svg>